<?xml version="1.0" encoding="UTF-8" standalone="no"?>
<!-- Created with Inkscape (http://www.inkscape.org/) -->

<svg
   width="4.2333331mm"
   height="4.2333331mm"
   viewBox="0 0 4.2333331 4.2333331"
   version="1.1"
   id="svg5"
   inkscape:version="1.1.1 (3bf5ae0d25, 2021-09-20)"
   sodipodi:docname="Layers_Idle.svg"
   xmlns:inkscape="http://www.inkscape.org/namespaces/inkscape"
   xmlns:sodipodi="http://sodipodi.sourceforge.net/DTD/sodipodi-0.dtd"
   xmlns="http://www.w3.org/2000/svg"
   xmlns:svg="http://www.w3.org/2000/svg">
  <sodipodi:namedview
     id="namedview7"
     pagecolor="#505050"
     bordercolor="#eeeeee"
     borderopacity="1"
     inkscape:pageshadow="0"
     inkscape:pageopacity="0"
     inkscape:pagecheckerboard="0"
     inkscape:document-units="mm"
     showgrid="false"
     inkscape:snap-global="true"
     showguides="false"
     inkscape:guide-bbox="true"
     inkscape:snap-bbox="true"
     inkscape:bbox-paths="true"
     inkscape:snap-bbox-edge-midpoints="true"
     fit-margin-top="0"
     fit-margin-left="0"
     fit-margin-right="0"
     fit-margin-bottom="0"
     inkscape:zoom="34.239575"
     inkscape:cx="1.7085492"
     inkscape:cy="-0.13142687"
     inkscape:window-width="3840"
     inkscape:window-height="2107"
     inkscape:window-x="-8"
     inkscape:window-y="-8"
     inkscape:window-maximized="1"
     inkscape:current-layer="layer1">
    <sodipodi:guide
       position="1.0403433,3.1517156"
       orientation="1,0"
       id="guide13045" />
    <sodipodi:guide
       position="1.0403413,3.1517256"
       orientation="0,-1"
       id="guide13047" />
    <sodipodi:guide
       position="3.2641733,1.2022556"
       orientation="1,0"
       id="guide13049" />
    <sodipodi:guide
       position="1.7040463,1.2022656"
       orientation="0,-1"
       id="guide13051" />
    <sodipodi:guide
       position="2.1522603,3.1517256"
       orientation="1,0"
       id="guide13453" />
    <sodipodi:guide
       position="1.0403423,2.1770056"
       orientation="0,-1"
       id="guide13455" />
  </sodipodi:namedview>
  <defs
     id="defs2">
    <inkscape:perspective
       sodipodi:type="inkscape:persp3d"
       inkscape:vp_x="0 : -144.26667 : 1"
       inkscape:vp_y="0 : 999.99998 : 0"
       inkscape:vp_z="210.00001 : -144.26667 : 1"
       inkscape:persp3d-origin="105 : -193.76667 : 1"
       id="perspective1016" />
  </defs>
  <g
     inkscape:label="Layer 1"
     inkscape:groupmode="layer"
     id="layer1"
     transform="translate(-87.09938,-100.48396)">
    <rect
       width="4.2333331"
       height="4.2333331"
       rx="0.55350834"
       style="fill:#cccccc;stroke-width:0.264583"
       id="rect1218"
       x="87.09938"
       y="100.48396" />
    <rect
       x="87.363968"
       y="100.74854"
       width="3.7041667"
       height="3.7041667"
       rx="0.48498124"
       style="fill:#262626;stroke-width:0.264583"
       id="rect1220" />
    <path
       style="fill:#626262;fill-opacity:1;stroke:#000000;stroke-width:0.0026515px;stroke-linecap:butt;stroke-linejoin:miter;stroke-opacity:1"
       d="m 87.987699,102.98527 1.265791,-0.4881 1.301583,0.4946 -1.298329,0.49785 z"
       id="path2213-4"
       sodipodi:nodetypes="ccccc" />
    <path
       id="path1196-5-5"
       style="fill:#626262;fill-opacity:1;stroke-width:0.0026515"
       d="m 89.252805,102.45939 c -0.0092,0 -0.04333,0.0117 -0.143385,0.0491 -0.07218,0.027 -0.147358,0.0551 -0.167045,0.0624 -0.01969,0.007 -0.03878,0.0145 -0.04242,0.0161 -0.0036,0.001 -0.05674,0.0214 -0.117994,0.0441 -0.06126,0.0228 -0.129856,0.0484 -0.152462,0.057 -0.06472,0.0245 -0.232208,0.0872 -0.258521,0.0968 -0.01312,0.005 -0.0525,0.0194 -0.08749,0.0326 -0.035,0.0132 -0.126277,0.0474 -0.202841,0.076 -0.08098,0.0304 -0.141844,0.0545 -0.145518,0.0579 -0.008,0.007 -0.01609,0.0246 -0.01616,0.0344 -7e-5,0.009 0.0057,0.0231 0.01337,0.032 0.0039,0.005 0.01714,0.0115 0.03806,0.0191 0.01763,0.007 0.03503,0.0134 0.03867,0.0149 0.0036,0.001 0.03229,0.0122 0.06364,0.0239 0.02065,0.008 0.02122,0.008 0.03909,0.0147 0.0085,0.003 0.01755,0.006 0.02867,0.0104 0.04073,0.0154 0.124148,0.0467 0.185404,0.0695 0.09143,0.0341 0.106423,0.0397 0.136764,0.0512 -3.9e-5,-5e-5 -6.9e-5,-1e-4 -1.09e-4,-1.3e-4 l 0.12288,0.0461 c 0.06151,0.0231 0.251364,0.0941 0.542378,0.20282 0.07371,0.0271 0.118251,0.0429 0.124854,0.0429 0.0075,10e-6 0.02246,-0.003 0.0411,-0.0115 0.01603,-0.006 0.04288,-0.0163 0.05966,-0.0225 0.0059,-0.002 0.01684,-0.006 0.02557,-0.009 0.02449,-0.009 0.05443,-0.0211 0.08942,-0.0343 0.07656,-0.0286 0.16784,-0.0628 0.202841,-0.076 0.035,-0.0132 0.07437,-0.0278 0.0875,-0.0326 0.0263,-0.009 0.193795,-0.0723 0.258524,-0.0968 0.02261,-0.008 0.09121,-0.0342 0.15246,-0.057 0.06126,-0.0228 0.114336,-0.0426 0.117994,-0.0441 0.0036,-10e-4 0.02273,-0.009 0.04242,-0.0161 0.01286,-0.005 0.06517,-0.0244 0.109057,-0.0408 0.06916,-0.0263 0.125558,-0.0482 0.128493,-0.0503 0.02152,-0.0154 0.02237,-0.0547 0.0015,-0.0711 -0.0085,-0.007 -0.01401,-0.009 -0.23343,-0.0908 -0.32763,-0.12237 -0.574545,-0.2147 -0.605871,-0.22656 -0.03867,-0.0147 -0.06812,-0.0256 -0.205491,-0.0768 -0.06126,-0.0229 -0.144682,-0.0542 -0.185404,-0.0695 -0.0547,-0.0207 -0.07722,-0.028 -0.08617,-0.028 z m -9.88e-4,0.0728 0.211852,0.0793 c 0.11652,0.0435 0.23213,0.0869 0.256923,0.0962 0.02479,0.009 0.109507,0.0411 0.188256,0.0705 0.07876,0.0295 0.159886,0.0598 0.180303,0.0676 0.02042,0.008 0.106331,0.0399 0.19091,0.0714 0.167329,0.0624 0.182198,0.068 0.181062,0.0692 -4.13e-4,3.7e-4 -0.07474,0.0284 -0.165155,0.0622 -0.09042,0.0337 -0.178115,0.0665 -0.194885,0.0729 -0.07108,0.0267 -0.117572,0.0441 -0.151981,0.057 -0.02016,0.008 -0.03924,0.0148 -0.04242,0.0161 -0.0032,10e-4 -0.02249,0.008 -0.04291,0.0159 -0.03944,0.0144 -0.215364,0.0799 -0.266478,0.0993 -0.01677,0.006 -0.04481,0.0169 -0.06231,0.0235 -0.0175,0.007 -0.05091,0.0191 -0.07424,0.0278 -0.02333,0.008 -0.0795,0.0297 -0.124814,0.0467 -0.04532,0.0169 -0.08349,0.0306 -0.08485,0.0306 -0.0014,-9e-5 -0.01915,-0.007 -0.03957,-0.0143 -0.02042,-0.008 -0.09201,-0.0347 -0.159091,-0.0597 -0.06709,-0.0251 -0.209072,-0.0782 -0.315529,-0.11797 -0.106458,-0.0398 -0.207282,-0.0774 -0.224054,-0.0836 -0.01677,-0.006 -0.03408,-0.013 -0.03844,-0.0155 -0.0044,-0.002 -0.0097,-0.005 -0.01192,-0.005 -0.0022,-2.4e-4 -0.07259,-0.026 -0.15644,-0.0574 -0.08385,-0.0314 -0.177321,-0.0664 -0.207708,-0.0777 -0.03744,-0.014 -0.054,-0.0213 -0.05137,-0.0228 0.0036,-0.002 0.135758,-0.0516 0.567982,-0.21344 0.08749,-0.0328 0.172812,-0.0648 0.189584,-0.0712 0.01677,-0.006 0.118789,-0.0446 0.226703,-0.0848 0.107914,-0.0403 0.201708,-0.0754 0.208419,-0.0781 z" />
    <path
       style="fill:#9a9a9a;fill-opacity:1;stroke:#000000;stroke-width:0.0026515px;stroke-linecap:butt;stroke-linejoin:miter;stroke-opacity:1"
       d="m 87.932382,102.57852 1.26579,-0.4881 1.301584,0.49461 -1.29833,0.49786 z"
       id="path2213-6"
       sodipodi:nodetypes="ccccc" />
    <path
       id="path1196-5-0"
       style="fill:#9a9a9a;fill-opacity:1;stroke-width:0.0026515"
       d="m 89.250504,102.06478 c -0.0092,0 -0.04333,0.0117 -0.143386,0.0491 -0.07219,0.027 -0.147357,0.0551 -0.167044,0.0624 -0.01969,0.007 -0.03878,0.0146 -0.04242,0.0161 -0.0036,0.001 -0.05674,0.0214 -0.117994,0.0441 -0.06126,0.0228 -0.129859,0.0484 -0.152462,0.057 -0.06472,0.0245 -0.23221,0.0872 -0.258523,0.0968 -0.01312,0.005 -0.0525,0.0194 -0.08749,0.0326 -0.035,0.0132 -0.126276,0.0474 -0.20284,0.076 -0.08098,0.0304 -0.141846,0.0545 -0.145518,0.0579 -0.008,0.007 -0.01609,0.0246 -0.01616,0.0344 -6.9e-5,0.009 0.0057,0.0231 0.01335,0.032 0.0039,0.005 0.01714,0.0115 0.03806,0.0191 0.01763,0.007 0.03503,0.0134 0.03867,0.0149 0.0036,0.001 0.03229,0.0122 0.06364,0.0239 0.02065,0.008 0.02122,0.008 0.03909,0.0147 0.0085,0.003 0.01755,0.006 0.02867,0.0104 0.04073,0.0154 0.124161,0.0467 0.185404,0.0695 0.09143,0.0341 0.106423,0.0397 0.136765,0.0512 -4e-5,-4e-5 -7e-5,-9e-5 -1.08e-4,-1.1e-4 l 0.122878,0.0461 c 0.06151,0.0231 0.251366,0.0941 0.542379,0.2028 0.07371,0.0271 0.118251,0.0429 0.124853,0.0429 0.0075,10e-6 0.02246,-0.003 0.0411,-0.0115 0.01603,-0.006 0.04288,-0.0163 0.05966,-0.0225 0.0059,-0.002 0.01684,-0.006 0.02558,-0.009 0.02449,-0.009 0.05443,-0.0211 0.08942,-0.0343 0.07656,-0.0286 0.16784,-0.0628 0.202841,-0.076 0.035,-0.0132 0.07437,-0.0278 0.0875,-0.0326 0.0263,-0.009 0.193794,-0.0723 0.25852,-0.0968 0.02261,-0.008 0.09121,-0.0342 0.152463,-0.057 0.06126,-0.0228 0.114336,-0.0426 0.117994,-0.0441 0.0036,-10e-4 0.02275,-0.009 0.04242,-0.0161 0.01286,-0.005 0.06517,-0.0244 0.109057,-0.0408 0.06916,-0.0263 0.125558,-0.0482 0.128493,-0.0503 0.02152,-0.0154 0.02237,-0.0547 0.0015,-0.0711 -0.0085,-0.007 -0.01401,-0.009 -0.233431,-0.0908 -0.32763,-0.12237 -0.574545,-0.21469 -0.60587,-0.22654 -0.03867,-0.0147 -0.06813,-0.0256 -0.205492,-0.0768 -0.06126,-0.0229 -0.144681,-0.0541 -0.185404,-0.0695 -0.05469,-0.0207 -0.07721,-0.028 -0.08617,-0.028 z m -9.87e-4,0.0728 0.211851,0.0793 c 0.11652,0.0435 0.232131,0.0869 0.256922,0.0962 0.02479,0.009 0.109507,0.0411 0.188258,0.0705 0.07876,0.0295 0.159885,0.0598 0.180302,0.0676 0.02042,0.008 0.106331,0.0399 0.19091,0.0714 0.167329,0.0624 0.182197,0.0681 0.181063,0.0692 -4.13e-4,3.7e-4 -0.07474,0.0284 -0.165155,0.0622 -0.09041,0.0337 -0.178116,0.0665 -0.194886,0.0729 -0.07109,0.0267 -0.117572,0.0441 -0.151981,0.057 -0.02016,0.007 -0.03924,0.0148 -0.04242,0.016 -0.0032,0.001 -0.02249,0.008 -0.04291,0.0159 -0.03944,0.0144 -0.215365,0.08 -0.266478,0.0993 -0.01677,0.006 -0.04481,0.0169 -0.06231,0.0235 -0.0175,0.007 -0.05091,0.0191 -0.07424,0.0278 -0.02333,0.008 -0.0795,0.0297 -0.124814,0.0467 -0.04532,0.0169 -0.08349,0.0306 -0.08486,0.0306 -0.0014,-9e-5 -0.01915,-0.007 -0.03957,-0.0143 -0.02042,-0.008 -0.09201,-0.0347 -0.15909,-0.0597 -0.06709,-0.0251 -0.209072,-0.0782 -0.31553,-0.11797 -0.106458,-0.0398 -0.207282,-0.0774 -0.224052,-0.0836 -0.01677,-0.006 -0.03408,-0.013 -0.03844,-0.0155 -0.0044,-0.002 -0.0097,-0.005 -0.01192,-0.005 -0.0022,-2.4e-4 -0.07259,-0.026 -0.156438,-0.0574 -0.08385,-0.0314 -0.177321,-0.0664 -0.20771,-0.0777 -0.03744,-0.014 -0.054,-0.0212 -0.05137,-0.0228 0.0036,-0.002 0.135756,-0.0516 0.567982,-0.21344 0.08749,-0.0328 0.172813,-0.0648 0.189582,-0.0712 0.01677,-0.006 0.11879,-0.0446 0.226706,-0.0848 0.107913,-0.0402 0.201707,-0.0754 0.208416,-0.0781 z" />
    <path
       style="fill:#cccccc;fill-opacity:1;stroke:#000000;stroke-width:0.0026515px;stroke-linecap:butt;stroke-linejoin:miter;stroke-opacity:1"
       d="m 87.986113,102.18967 1.265789,-0.48809 1.301584,0.49461 -1.29833,0.49785 z"
       id="path2213"
       sodipodi:nodetypes="ccccc" />
    <path
       id="path1196-5"
       style="fill:#cccccc;fill-opacity:1;stroke-width:0.0026515"
       d="m 89.252589,101.67221 c -0.0092,10e-6 -0.04333,0.0117 -0.143385,0.0491 -0.07218,0.027 -0.147356,0.0551 -0.167045,0.0624 -0.01969,0.007 -0.03878,0.0145 -0.04242,0.016 -0.0036,10e-4 -0.05674,0.0215 -0.117995,0.0441 -0.06126,0.0228 -0.129856,0.0484 -0.152461,0.057 -0.06472,0.0245 -0.23221,0.0872 -0.258523,0.0968 -0.01312,0.005 -0.0525,0.0194 -0.0875,0.0326 -0.035,0.0132 -0.126276,0.0474 -0.202841,0.076 -0.08096,0.0303 -0.141843,0.0545 -0.145515,0.0579 -0.008,0.007 -0.01609,0.0246 -0.01616,0.0344 -7e-5,0.009 0.0057,0.0231 0.01335,0.032 0.0039,0.005 0.01714,0.0115 0.03806,0.0191 0.01763,0.007 0.03503,0.0134 0.03867,0.0149 0.0036,0.001 0.03229,0.0122 0.06364,0.0239 0.02065,0.008 0.02122,0.008 0.03909,0.0147 0.0085,0.003 0.01755,0.006 0.02867,0.0104 0.04073,0.0154 0.124149,0.0467 0.185404,0.0695 0.09143,0.0341 0.106411,0.0397 0.136765,0.0512 -3.7e-5,-5e-5 -7e-5,-10e-5 -1.1e-4,-1.2e-4 l 0.12288,0.0461 c 0.06151,0.0231 0.251365,0.0941 0.542378,0.20282 0.07371,0.0272 0.118252,0.0429 0.124853,0.0429 0.0075,0 0.02246,-0.003 0.0411,-0.0115 0.01603,-0.006 0.04289,-0.0163 0.05966,-0.0225 0.0059,-0.002 0.01684,-0.006 0.02557,-0.009 0.02449,-0.009 0.05443,-0.0211 0.08942,-0.0343 0.07656,-0.0286 0.167841,-0.0628 0.20284,-0.076 0.035,-0.0132 0.07437,-0.0278 0.08749,-0.0326 0.0263,-0.009 0.193796,-0.0723 0.258523,-0.0968 0.02261,-0.008 0.09121,-0.0342 0.152462,-0.057 0.06126,-0.0228 0.114336,-0.0426 0.117995,-0.0441 0.0036,-0.001 0.02274,-0.009 0.04242,-0.0161 0.01286,-0.005 0.06517,-0.0244 0.109057,-0.0408 0.06916,-0.0263 0.125558,-0.0482 0.128495,-0.0502 0.02152,-0.0154 0.02238,-0.0548 0.0015,-0.0712 -0.0085,-0.007 -0.01401,-0.009 -0.233431,-0.0908 -0.327631,-0.12239 -0.574545,-0.21471 -0.605871,-0.22656 -0.03867,-0.0147 -0.06813,-0.0256 -0.205492,-0.0768 -0.06126,-0.0229 -0.14468,-0.0542 -0.185405,-0.0695 -0.05468,-0.0207 -0.07721,-0.028 -0.08617,-0.028 z m -9.87e-4,0.0728 0.211852,0.0792 c 0.116519,0.0435 0.232129,0.0869 0.256922,0.0962 0.02479,0.009 0.109507,0.0411 0.188257,0.0705 0.07876,0.0295 0.159886,0.0598 0.180302,0.0676 0.02041,0.008 0.106331,0.04 0.19091,0.0715 0.16733,0.0624 0.182198,0.068 0.181063,0.0692 -4.14e-4,3.7e-4 -0.07474,0.0284 -0.165155,0.0622 -0.09042,0.0337 -0.178115,0.0665 -0.194886,0.0729 -0.07109,0.0267 -0.117572,0.0441 -0.15198,0.057 -0.02016,0.008 -0.03924,0.0148 -0.04242,0.016 -0.0032,0.001 -0.02249,0.008 -0.04291,0.0159 -0.03944,0.0144 -0.215364,0.08 -0.266476,0.0994 -0.01677,0.006 -0.04481,0.0169 -0.06232,0.0234 -0.0175,0.007 -0.05091,0.0191 -0.07424,0.0278 -0.02333,0.009 -0.07951,0.0298 -0.124815,0.0467 -0.04532,0.0169 -0.08349,0.0306 -0.08486,0.0306 -0.0014,-8e-5 -0.01915,-0.007 -0.03957,-0.0143 -0.02042,-0.008 -0.09201,-0.0347 -0.159092,-0.0597 -0.06709,-0.0251 -0.20907,-0.0782 -0.315531,-0.11796 -0.106458,-0.0399 -0.207281,-0.0774 -0.224052,-0.0836 -0.01677,-0.006 -0.03408,-0.013 -0.03844,-0.0155 -0.0044,-0.002 -0.0097,-0.005 -0.01192,-0.005 -0.0022,-2.4e-4 -0.07259,-0.0261 -0.156439,-0.0574 -0.08385,-0.0314 -0.177322,-0.0664 -0.207708,-0.0777 -0.03744,-0.014 -0.054,-0.0212 -0.05137,-0.0228 0.0036,-0.002 0.135757,-0.0516 0.567983,-0.21345 0.08749,-0.0327 0.172813,-0.0648 0.189583,-0.0712 0.01677,-0.006 0.11879,-0.0446 0.226703,-0.0848 0.107914,-0.0402 0.201708,-0.0754 0.208419,-0.0781 z" />
  </g>
</svg>
